<mxfile host="app.diagrams.net" agent="Mozilla/5.0 (Macintosh; Intel Mac OS X 10_15_7) AppleWebKit/537.36 (KHTML, like Gecko) Chrome/129.0.0.0 Safari/537.36" version="24.7.17">
  <diagram name="第 1 页" id="C1KnFERQBGGPyJ_VdRGr">
    <mxGraphModel dx="1026" dy="650" grid="1" gridSize="10" guides="1" tooltips="1" connect="1" arrows="1" fold="1" page="1" pageScale="1" pageWidth="827" pageHeight="1169" math="0" shadow="0">
      <root>
        <mxCell id="0" />
        <mxCell id="1" parent="0" />
        <mxCell id="d8UXTFsGi_f-RUGDa4nG-5" value="" style="edgeStyle=orthogonalEdgeStyle;rounded=0;orthogonalLoop=1;jettySize=auto;html=1;" edge="1" parent="1" source="d8UXTFsGi_f-RUGDa4nG-1" target="d8UXTFsGi_f-RUGDa4nG-4">
          <mxGeometry relative="1" as="geometry" />
        </mxCell>
        <mxCell id="d8UXTFsGi_f-RUGDa4nG-1" value="标签sql校验结果获取" style="ellipse;whiteSpace=wrap;html=1;" vertex="1" parent="1">
          <mxGeometry x="270" y="90" width="130" height="60" as="geometry" />
        </mxCell>
        <mxCell id="d8UXTFsGi_f-RUGDa4nG-7" value="不存在" style="edgeStyle=orthogonalEdgeStyle;rounded=0;orthogonalLoop=1;jettySize=auto;html=1;" edge="1" parent="1" source="d8UXTFsGi_f-RUGDa4nG-4" target="d8UXTFsGi_f-RUGDa4nG-6">
          <mxGeometry relative="1" as="geometry" />
        </mxCell>
        <mxCell id="d8UXTFsGi_f-RUGDa4nG-9" value="" style="edgeStyle=orthogonalEdgeStyle;rounded=0;orthogonalLoop=1;jettySize=auto;html=1;" edge="1" parent="1" source="d8UXTFsGi_f-RUGDa4nG-4" target="d8UXTFsGi_f-RUGDa4nG-8">
          <mxGeometry relative="1" as="geometry" />
        </mxCell>
        <mxCell id="d8UXTFsGi_f-RUGDa4nG-4" value="校验对应id实例是否存在" style="rhombus;whiteSpace=wrap;html=1;" vertex="1" parent="1">
          <mxGeometry x="252.5" y="210" width="165" height="70" as="geometry" />
        </mxCell>
        <mxCell id="d8UXTFsGi_f-RUGDa4nG-6" value="返回id错误" style="whiteSpace=wrap;html=1;" vertex="1" parent="1">
          <mxGeometry x="50" y="215" width="120" height="60" as="geometry" />
        </mxCell>
        <mxCell id="d8UXTFsGi_f-RUGDa4nG-11" value="未完成" style="edgeStyle=orthogonalEdgeStyle;rounded=0;orthogonalLoop=1;jettySize=auto;html=1;" edge="1" parent="1" source="d8UXTFsGi_f-RUGDa4nG-8" target="d8UXTFsGi_f-RUGDa4nG-10">
          <mxGeometry relative="1" as="geometry" />
        </mxCell>
        <mxCell id="d8UXTFsGi_f-RUGDa4nG-13" value="" style="edgeStyle=orthogonalEdgeStyle;rounded=0;orthogonalLoop=1;jettySize=auto;html=1;" edge="1" parent="1" source="d8UXTFsGi_f-RUGDa4nG-8" target="d8UXTFsGi_f-RUGDa4nG-12">
          <mxGeometry relative="1" as="geometry" />
        </mxCell>
        <mxCell id="d8UXTFsGi_f-RUGDa4nG-8" value="确认任务是否完成" style="rhombus;whiteSpace=wrap;html=1;" vertex="1" parent="1">
          <mxGeometry x="272.5" y="330" width="125" height="75" as="geometry" />
        </mxCell>
        <mxCell id="d8UXTFsGi_f-RUGDa4nG-10" value="返回任务还未完成" style="whiteSpace=wrap;html=1;" vertex="1" parent="1">
          <mxGeometry x="50" y="337.5" width="120" height="60" as="geometry" />
        </mxCell>
        <mxCell id="d8UXTFsGi_f-RUGDa4nG-17" value="" style="edgeStyle=orthogonalEdgeStyle;rounded=0;orthogonalLoop=1;jettySize=auto;html=1;" edge="1" parent="1" source="d8UXTFsGi_f-RUGDa4nG-12" target="d8UXTFsGi_f-RUGDa4nG-16">
          <mxGeometry relative="1" as="geometry" />
        </mxCell>
        <mxCell id="d8UXTFsGi_f-RUGDa4nG-12" value="获取最多十条结果" style="shape=process;whiteSpace=wrap;html=1;backgroundOutline=1;" vertex="1" parent="1">
          <mxGeometry x="267.5" y="450" width="135" height="60" as="geometry" />
        </mxCell>
        <mxCell id="d8UXTFsGi_f-RUGDa4nG-14" value="封装返回" style="whiteSpace=wrap;html=1;" vertex="1" parent="1">
          <mxGeometry x="275" y="710" width="120" height="60" as="geometry" />
        </mxCell>
        <mxCell id="d8UXTFsGi_f-RUGDa4nG-19" value="" style="edgeStyle=orthogonalEdgeStyle;rounded=0;orthogonalLoop=1;jettySize=auto;html=1;" edge="1" parent="1" source="d8UXTFsGi_f-RUGDa4nG-16" target="d8UXTFsGi_f-RUGDa4nG-18">
          <mxGeometry relative="1" as="geometry" />
        </mxCell>
        <mxCell id="d8UXTFsGi_f-RUGDa4nG-20" value="" style="edgeStyle=orthogonalEdgeStyle;rounded=0;orthogonalLoop=1;jettySize=auto;html=1;" edge="1" parent="1" source="d8UXTFsGi_f-RUGDa4nG-16" target="d8UXTFsGi_f-RUGDa4nG-14">
          <mxGeometry relative="1" as="geometry" />
        </mxCell>
        <mxCell id="d8UXTFsGi_f-RUGDa4nG-16" value="校验值类型&lt;div&gt;是否匹配&lt;/div&gt;" style="rhombus;whiteSpace=wrap;html=1;" vertex="1" parent="1">
          <mxGeometry x="287.5" y="580" width="95" height="70" as="geometry" />
        </mxCell>
        <mxCell id="d8UXTFsGi_f-RUGDa4nG-18" value="返回值类型错误" style="whiteSpace=wrap;html=1;" vertex="1" parent="1">
          <mxGeometry x="50" y="585" width="120" height="60" as="geometry" />
        </mxCell>
      </root>
    </mxGraphModel>
  </diagram>
</mxfile>
